<?xml version="1.0" encoding="UTF-8" standalone="no"?>
<!-- Created with Inkscape (http://www.inkscape.org/) -->

<svg
   xmlns:dc="http://purl.org/dc/elements/1.1/"
   xmlns:cc="http://creativecommons.org/ns#"
   xmlns:rdf="http://www.w3.org/1999/02/22-rdf-syntax-ns#"
   xmlns:svg="http://www.w3.org/2000/svg"
   xmlns="http://www.w3.org/2000/svg"
   xmlns:sodipodi="http://sodipodi.sourceforge.net/DTD/sodipodi-0.dtd"
   xmlns:inkscape="http://www.inkscape.org/namespaces/inkscape"
   width="33.866669mm"
   height="33.866661mm"
   viewBox="0 0 33.866669 33.866661"
   version="1.1"
   id="svg8"
   inkscape:version="0.92.5 (2060ec1f9f, 2020-04-08)"
   sodipodi:docname="fennel.svg">
  <defs
     id="defs2" />
  <sodipodi:namedview
     id="base"
     pagecolor="#ffffff"
     bordercolor="#666666"
     borderopacity="1.0"
     inkscape:pageopacity="0.0"
     inkscape:pageshadow="2"
     inkscape:zoom="2.2367187"
     inkscape:cx="24.737817"
     inkscape:cy="145.44053"
     inkscape:document-units="mm"
     inkscape:current-layer="g81"
     showgrid="false"
     inkscape:window-width="1920"
     inkscape:window-height="991"
     inkscape:window-x="-9"
     inkscape:window-y="-9"
     inkscape:window-maximized="1"
     fit-margin-top="0"
     fit-margin-left="0"
     fit-margin-right="-2.4"
     fit-margin-bottom="0" />
  <metadata
     id="metadata5">
    <rdf:RDF>
      <cc:Work
         rdf:about="">
        <dc:format>image/svg+xml</dc:format>
        <dc:type
           rdf:resource="http://purl.org/dc/dcmitype/StillImage" />
        <dc:title></dc:title>
      </cc:Work>
    </rdf:RDF>
  </metadata>
  <g
     inkscape:label="Calque 1"
     inkscape:groupmode="layer"
     id="layer1"
     transform="translate(-67.999485,-174.78782)">
    <g
       id="g111">
      <g
         transform="translate(-10.646175,1.41949)"
         id="g81">
        <path
           inkscape:connector-curvature="0"
           id="path97"
           d="m 93.00111,206.04095 c -2.442942,-1.23898 -3.170735,-2.9678 -2.686358,-6.38123 0.535517,-3.77382 0.0044,-7.56285 -1.372239,-9.79036 -0.474069,-0.76706 -0.621095,-0.84832 -1.085381,-0.59984 -0.711354,0.38071 -1.245133,-0.0848 -0.763159,-0.66553 0.346226,-0.41718 0.05572,-0.55635 -1.548422,-0.7418 -0.787295,-0.091 -1.019213,-0.63489 -0.359952,-0.84413 0.448519,-0.14235 1.393566,0.0479 2.530796,0.50959 0.423456,0.1719 0.439527,0.12073 0.15691,-0.49954 -0.222813,-0.48902 -0.406535,-0.61498 -0.628413,-0.43084 -0.430625,0.35739 -0.661732,0.0571 -0.661732,-0.85997 0,-0.51405 -0.397814,-1.27835 -1.190625,-2.28747 -0.707158,-0.9001 -1.190625,-1.79081 -1.190625,-2.19354 0,-1.21173 0.322801,-2.33171 0.672045,-2.33171 0.187724,0 0.842231,0.56555 1.454462,1.25677 l 1.113145,1.25677 -0.861251,-1.71979 c -0.473688,-0.94589 -1.206085,-2.22254 -1.627547,-2.83702 l -0.766296,-1.11723 1.114087,-0.80704 c 0.612747,-0.44387 1.232124,-0.76769 1.376393,-0.7196 0.42476,0.14159 2.731069,4.61338 3.781947,7.33297 0.534478,1.38319 1.273004,2.79558 1.642241,3.1407 0.585533,0.54728 0.61917,0.66521 0.264135,0.92604 -0.339216,0.2492 -0.355787,0.45017 -0.09969,1.20896 0.468837,1.3891 0.93216,1.33802 0.93216,-0.10277 0,-1.31832 -0.594145,-3.05626 -1.044833,-3.05626 -0.152946,0 -0.278084,-0.17859 -0.278084,-0.39688 0,-0.47632 0.563949,-0.52084 1.005417,-0.0794 0.246944,0.24694 0.3175,0.21167 0.3175,-0.15875 0,-0.26194 -0.416719,-0.89297 -0.926042,-1.40229 -0.509323,-0.50932 -0.926042,-1.0332 -0.926042,-1.16417 0,-0.3669 0.612327,-0.28273 1.264046,0.17375 0.513531,0.3597 0.588038,0.36188 0.588038,0.0172 0,-0.87201 -0.54112,-1.74494 -1.181267,-1.90561 -1.007158,-0.25278 -0.891769,-1.01508 0.122933,-0.81214 0.761774,0.15236 0.79375,0.1212 0.79375,-0.77331 0,-0.65434 -0.197092,-1.11472 -0.661458,-1.54508 -0.363802,-0.33716 -0.661458,-0.74819 -0.661458,-0.91341 0,-0.38871 0.707086,-0.39008 0.94704,-0.002 0.125844,0.20362 0.262185,0.15979 0.428751,-0.13785 0.380278,-0.67952 0.740875,-0.23503 0.740875,0.91324 0,0.5735 0.102448,1.04272 0.227662,1.04272 0.125214,0 0.657607,-0.29177 1.183096,-0.64838 0.595459,-0.40408 1.019365,-0.54493 1.125118,-0.37382 0.09333,0.15101 0.03718,0.40706 -0.124763,0.569 -0.444468,0.44447 -0.355092,0.71778 0.23472,0.71778 0.293982,0 0.529167,0.17639 0.529167,0.39688 0,0.46372 -0.85587,0.52385 -1.621807,0.11393 -0.884735,-0.4735 -1.293962,0.12656 -1.252578,1.83669 0.01982,0.81893 0.08763,1.22107 0.150694,0.89365 0.150498,-0.78137 0.871608,-0.77813 0.871608,0.004 0,0.32957 -0.238125,1.04352 -0.529167,1.58654 -0.63209,1.17934 -0.671069,2.2541 -0.128818,3.55189 0.524244,1.25469 0.842996,0.91629 0.400328,-0.42501 -0.354169,-1.07314 -0.213384,-2.0319 0.255788,-1.74193 0.146549,0.0906 0.266452,0.39577 0.266452,0.67822 0,0.66924 0.202741,0.64838 0.79471,-0.0818 0.776935,-0.95827 0.902924,-0.34209 0.251439,1.22974 -0.600812,1.44956 -0.601271,1.461 -0.128702,3.20681 0.260842,0.96363 0.572077,1.65424 0.691631,1.53469 0.529309,-0.52931 1.095588,-5.29261 1.23038,-10.34944 l 0.14315,-5.37038 1.352967,0.0787 1.352968,0.0787 v 5.68854 c 0,3.1287 0.0963,5.83737 0.21405,6.01927 0.2472,0.38194 -0.0105,0.93516 -0.34059,0.73116 -0.12225,-0.0755 -0.36287,0.69621 -0.53471,1.71503 -0.17185,1.01882 -0.467299,2.43939 -0.656556,3.15683 -0.328362,1.24476 -0.315918,1.33091 0.272025,1.88325 l 0.616131,0.57882 0.42979,-1.02291 c 0.91309,-2.17318 1.05931,-3.16115 0.57682,-3.89752 -0.595,-0.90808 -0.56476,-1.31955 0.0845,-1.14977 0.46407,0.12136 0.52917,0.008 0.52917,-0.9205 0,-0.58239 -0.20836,-1.42164 -0.46303,-1.86501 -0.3486,-0.60692 -0.38129,-0.83494 -0.13229,-0.92277 0.24304,-0.0857 0.33073,-1.08761 0.33073,-3.77846 0,-3.55345 0.0203,-3.68591 0.68498,-4.47587 0.68019,-0.80836 1.43169,-1.0821 1.43169,-0.52152 0,0.1609 -0.29766,0.64628 -0.66146,1.07864 -0.55233,0.65641 -0.66146,1.06102 -0.66146,2.45252 0,0.91653 0.0732,2.03229 0.16261,2.47947 0.15785,0.78922 0.18112,0.80093 0.79375,0.39952 0.77812,-0.50984 0.84657,-1.15323 0.10198,-0.95851 -0.69278,0.18116 -0.67484,-0.27691 0.0492,-1.25623 0.39534,-0.53471 0.61503,-1.28895 0.69418,-2.38323 0.1073,-1.48333 0.18467,-1.64773 1.05332,-2.23799 0.51564,-0.35039 1.05359,-0.56534 1.19545,-0.47766 0.16112,0.0996 0.19882,1.80814 0.10045,4.55236 -0.17586,4.90624 -0.59807,7.29913 -2.43242,13.78566 -1.24269,4.39438 -1.71333,6.80173 -1.71652,8.78017 -0.005,3.281 -2.01279,4.98832 -6.087416,5.1772 -2.025665,0.0939 -2.386696,0.0344 -3.636216,-0.59933 z m 5.840925,-0.58542 c 0.520081,-0.30902 1.290965,-2.7314 1.426035,-4.48106 0.13451,-1.74252 0.10611,-1.89146 -0.353173,-1.85208 -0.358637,0.0307 -0.478261,-0.10637 -0.424302,-0.48635 0.225028,-1.58464 0.135268,-2.4872 -0.315818,-3.17564 l -0.493893,-0.75378 -0.471911,0.90638 c -0.259551,0.4985 -1.431215,2.097 -2.603697,3.5522 -2.149252,2.66751 -2.744993,3.62799 -3.077433,4.96158 -0.160934,0.6456 -0.08109,0.77049 0.703488,1.10038 1.10769,0.46575 1.423812,0.30972 3.59874,-1.77624 1.268019,-1.21614 1.684463,-1.4854 1.806311,-1.16786 0.202201,0.52692 -0.207767,1.28526 -1.420564,2.62768 l -0.965333,1.06851 1.185608,-0.1964 c 0.652084,-0.10802 1.284758,-0.25531 1.405942,-0.32732 z m -0.352626,-4.30595 c 0,-0.14552 0.119063,-0.26458 0.264583,-0.26458 0.145521,0 0.264584,0.11906 0.264584,0.26458 0,0.14552 -0.119063,0.26458 -0.264584,0.26458 -0.14552,0 -0.264583,-0.11906 -0.264583,-0.26458 z m -6.756827,1.12448 c 0.240656,-0.97439 1.514944,-2.93787 2.536811,-3.90885 0.455832,-0.43313 1.056539,-1.10425 1.334903,-1.49139 l 0.506118,-0.70389 -1.111584,-0.81747 c -0.611372,-0.4496 -1.195501,-0.81746 -1.298066,-0.81746 -0.102564,0 -0.272535,0.74144 -0.377711,1.64765 -0.237185,2.0436 -0.733243,3.48274 -1.585709,4.60038 -0.636423,0.83439 -0.898697,2.21863 -0.420368,2.21863 0.129746,0 0.316768,-0.32742 0.415606,-0.7276 z m 4.085111,-8.83688 c 0.623107,-1.78745 0.09295,-4.62151 -1.181112,-6.31388 l -0.694615,-0.92268 0.186587,1.45521 c 0.209265,1.63208 0.365434,1.98437 0.879645,1.98437 0.261092,0 0.361781,0.49088 0.379902,1.85209 0.03079,2.31279 -0.499881,2.53553 -1.037341,0.43541 -0.3173,-1.23985 -1.330052,-3.12634 -1.555795,-2.89804 -0.04426,0.0448 0.02308,0.61716 0.149632,1.272 0.126556,0.65485 0.235286,1.63711 0.241624,2.18281 0.0092,0.79014 0.112685,0.99219 0.508292,0.99219 0.273224,0 0.64499,0.1786 0.826147,0.39688 0.518146,0.62432 0.981635,0.46839 1.297034,-0.43636 z m 8.063177,-10.79683 c -0.39947,-0.39948 -0.89116,1.01471 -0.86446,2.48636 l 0.0291,1.60308 0.48922,-1.97319 c 0.26907,-1.08525 0.42484,-2.03756 0.34615,-2.11625 z m -8.193732,-1.37359 c -0.229298,-0.37101 1.07704,-1.66478 1.4489,-1.43496 0.199902,0.12355 0.16266,0.37176 -0.120651,0.80415 -0.483993,0.73867 -1.085142,1.02417 -1.328249,0.63081 z m -5.333666,-4.95189 c -0.757585,-0.64854 -1.131107,-1.35904 -0.714465,-1.35904 0.724629,0 2.235819,1.32948 2.235819,1.96698 0,0.3614 -0.729603,0.0699 -1.521354,-0.60794 z"
           style="fill:#c6ccab;stroke-width:0.26458332" />
        <path
           inkscape:connector-curvature="0"
           id="path95"
           d="m 93.602496,206.29986 c -1.178049,-0.44906 -2.387031,-1.49543 -2.931369,-2.53706 -0.44637,-0.85417 -0.479603,-1.64447 -0.23404,-5.56561 0.219872,-3.51089 -0.09099,-5.68752 -1.095364,-7.66955 -0.749058,-1.47819 -0.990179,-1.66432 -1.678705,-1.29583 -0.704322,0.37694 -1.034337,-0.16684 -0.388053,-0.63941 0.438412,-0.32058 0.388899,-0.37649 -0.568817,-0.64238 -0.576967,-0.16018 -1.197858,-0.2919 -1.379759,-0.29272 -0.181901,-8.1e-4 -0.330729,-0.12053 -0.330729,-0.26605 0,-0.41276 1.78915,-0.31072 2.686288,0.15321 l 0.807928,0.41779 -0.46093,-0.78029 c -0.320428,-0.54244 -0.611035,-0.74104 -0.953358,-0.65152 -0.40815,0.10673 -0.492457,-0.0237 -0.492595,-0.76198 -1.23e-4,-0.65783 -0.319612,-1.29767 -1.221816,-2.44692 -1.154895,-1.47113 -1.212578,-1.62236 -1.055628,-2.76744 0.261469,-1.90762 0.555431,-1.95171 2.044129,-0.3066 l 1.31685,1.4552 -0.710163,-1.4552 c -0.39059,-0.80037 -1.118006,-2.09418 -1.616479,-2.87514 -0.498474,-0.78097 -0.853156,-1.55847 -0.788182,-1.72779 0.06497,-0.16932 0.539499,-0.53477 1.054501,-0.81212 0.716676,-0.38595 1.021812,-0.43335 1.300546,-0.20202 0.576938,0.47881 2.70887,4.72945 3.679847,7.33686 0.501363,1.34633 1.147581,2.59169 1.486888,2.86546 0.563165,0.45438 0.595266,1.16586 0.03704,0.82085 -0.345839,-0.21374 -0.01466,1.17011 0.463338,1.93608 0.422075,0.67636 1.028639,0.81306 0.784482,0.1768 -0.08833,-0.23018 -0.160599,-0.92794 -0.160599,-1.55058 0,-0.77707 -0.211519,-1.44375 -0.674536,-2.12604 -0.73145,-1.07786 -0.664218,-1.49894 0.157402,-0.98584 0.631866,0.39461 0.672659,0.0638 0.12316,-0.99883 -0.216685,-0.41902 -0.633403,-0.83785 -0.926041,-0.93073 -0.543684,-0.17256 -0.7538,-0.92696 -0.258176,-0.92696 0.15064,0 0.567359,0.19228 0.926041,0.4273 0.624408,0.40913 0.65215,0.40276 0.65215,-0.14968 0,-0.85385 -0.477236,-1.59389 -1.206713,-1.87124 -0.354954,-0.13495 -0.645371,-0.36738 -0.645371,-0.5165 0,-0.35732 0.690129,-0.34521 1.38043,0.0242 0.472321,0.25278 0.527034,0.23058 0.379481,-0.15393 -0.09483,-0.24711 -0.172411,-0.74263 -0.172411,-1.10114 0,-0.35852 -0.297656,-0.9495 -0.661458,-1.3133 -0.972673,-0.97268 -0.892556,-1.45048 0.149686,-0.89268 0.352778,0.1888 0.511772,0.1888 0.511772,0 0,-0.15065 0.178594,-0.2739 0.396875,-0.2739 0.294145,0 0.396875,0.30905 0.396875,1.19395 v 1.19394 l 1.083331,-0.68388 c 1.165762,-0.73591 1.606284,-0.67104 1.087224,0.16011 -0.288222,0.46152 -0.251576,0.51713 0.340745,0.51713 0.434316,0 0.6637,0.14755 0.6637,0.42691 0,0.32414 -0.175141,0.39233 -0.727604,0.28327 -0.400182,-0.079 -0.960666,-0.1818 -1.245519,-0.22846 -0.739275,-0.1211 -1.199225,0.97046 -0.967639,2.29641 0.152787,0.87479 0.213038,0.95509 0.347408,0.46302 0.08941,-0.32742 0.292773,-0.59531 0.451917,-0.59531 0.44573,0 0.3444,0.83847 -0.239813,1.98437 -0.291041,0.57086 -0.529166,1.49492 -0.529166,2.05346 0,1.13856 0.83154,3.02603 0.995608,2.25989 0.0529,-0.24704 -0.03041,-0.6857 -0.185129,-0.9748 -0.408485,-0.76326 -0.347412,-1.61876 0.115562,-1.61876 0.220486,0 0.396875,0.23519 0.396875,0.52917 0,0.68477 0.199346,0.66818 0.79471,-0.0662 0.74285,-0.91623 0.918512,-0.36063 0.293911,0.92963 -0.3077,0.63562 -0.557701,1.4455 -0.555557,1.79974 0.0056,0.92553 0.946156,3.81145 1.139985,3.49783 0.52468,-0.84895 1.046989,-5.5258 1.168229,-10.46053 l 0.134884,-5.4901 h 1.261737 c 0.906458,0 1.306948,0.11784 1.422328,0.41851 0.22023,0.57391 0.16828,6.12378 -0.0815,8.70961 -0.16269,1.68406 -0.12651,2.20789 0.17704,2.56302 0.38873,0.45478 0.22378,1.13816 -0.21001,0.87006 -0.1312,-0.0811 -0.28883,0.12533 -0.35029,0.4587 -0.0615,0.33338 -0.34916,1.73723 -0.639312,3.11968 l -0.527557,2.51354 0.554319,0.77962 0.55432,0.77962 0.6348,-1.39895 c 0.86218,-1.90006 1.0236,-3.28419 0.4798,-4.11415 -0.5632,-0.85953 -0.54359,-1.0321 0.0982,-0.86427 0.47391,0.12393 0.52917,0.008 0.52917,-1.10919 0,-0.68735 -0.17444,-1.47821 -0.38846,-1.76117 -0.4969,-0.65696 -0.50248,-0.91047 -0.0201,-0.91047 0.32499,0 0.3631,-0.54822 0.24373,-3.50573 -0.13059,-3.23559 -0.099,-3.57267 0.41003,-4.37451 0.54826,-0.86362 1.22486,-1.32118 1.51888,-1.02716 0.0846,0.0846 -0.15867,0.52516 -0.54058,0.97903 -0.64736,0.76934 -0.69438,1.00301 -0.69438,3.45076 0,1.44404 0.0539,2.62553 0.11984,2.62553 0.0659,0 0.42311,-0.13817 0.79375,-0.30705 0.46464,-0.2117 0.67391,-0.51571 0.67391,-0.97896 0,-0.52259 -0.0705,-0.60135 -0.3175,-0.35441 -0.38153,0.38153 -0.74083,0.4129 -0.74083,0.0647 0,-0.13906 0.29766,-0.69145 0.66146,-1.22755 0.49892,-0.7352 0.66146,-1.31791 0.66146,-2.37142 0,-1.30041 0.0614,-1.43468 0.89112,-1.94745 0.49012,-0.30291 1.0259,-0.55075 1.19062,-0.55075 0.4376,0 0.38264,4.89499 -0.096,8.54592 -0.39827,3.03821 -0.87718,5.11465 -2.63622,11.43012 -0.64616,2.31987 -1.02594,4.35949 -1.16664,6.26539 -0.18606,2.52033 -0.28908,2.9313 -0.95301,3.80175 -0.41087,0.53869 -1.2907,1.21906 -1.963712,1.51855 -1.590763,0.70789 -4.780801,0.86716 -6.238528,0.31147 z m 6.17026,-1.16134 c 1.570074,-0.801 1.969324,-1.63078 2.173864,-4.51811 0.17343,-2.44814 0.16038,-2.53256 -0.50174,-3.24458 l -0.6798,-0.73103 -0.30427,1.19834 c -0.33617,1.32397 -0.496503,1.57951 -0.852838,1.35929 -0.139112,-0.086 -0.09334,-0.84594 0.109174,-1.81243 0.465704,-2.22263 0.447374,-2.6937 -0.124973,-3.21167 -0.460069,-0.41636 -0.52231,-0.36686 -1.223077,0.97257 -0.406087,0.77619 -1.691959,2.59225 -2.857493,4.0357 -2.066783,2.55958 -3.090041,4.27414 -3.1018,5.19733 -0.0065,0.51196 1.256307,1.26357 2.123019,1.26357 0.833318,0 1.95487,-0.8984 2.808638,-2.24979 0.701217,-1.10993 1.412532,-1.56311 1.412532,-0.89991 0,0.35059 -0.89198,1.67875 -1.828504,2.72264 l -0.685037,0.76357 1.257617,-0.16331 c 0.691689,-0.0898 1.715299,-0.3968 2.274688,-0.68218 z m -7.691236,-2.46759 c 0.172148,-0.47294 1.252069,-2.04482 2.399825,-3.49306 1.526233,-1.9258 2.005515,-2.70764 1.784142,-2.91041 -1.124685,-1.03019 -2.584553,-1.99986 -2.805375,-1.86339 -0.144303,0.0892 -0.263033,0.78021 -0.263845,1.5356 -0.002,1.8515 -0.377733,3.08181 -1.40941,4.61488 -0.734688,1.09174 -0.831539,1.41151 -0.645253,2.13041 0.278489,1.07473 0.545063,1.07075 0.939916,-0.014 z m 3.655026,-8.97853 c 0.850129,-1.64397 0.181639,-5.1052 -1.344735,-6.96261 -0.412219,-0.50162 -0.426574,-0.45669 -0.275755,0.86312 0.203098,1.7773 0.363566,2.17873 0.803464,2.00992 0.277258,-0.10639 0.357363,0.30314 0.365537,1.86879 0.01035,1.98316 -0.344246,2.685 -0.645415,1.27744 -0.318533,-1.48871 -0.948594,-2.92663 -1.492945,-3.40718 -0.556089,-0.49092 -0.559627,-0.48941 -0.388784,0.16603 0.09483,0.3638 0.248755,1.45519 0.342062,2.4253 0.116424,1.21047 0.269204,1.72564 0.486978,1.64207 0.174531,-0.067 0.604842,0.11761 0.956247,0.41017 0.351404,0.29257 0.665626,0.5359 0.698269,0.54074 0.03264,0.005 0.255428,-0.37036 0.495077,-0.83379 z m 8.287524,-10.90622 c 0.0209,-0.48731 0.004,-0.48814 -0.50758,-0.0251 -0.44117,0.39926 -0.52411,0.79104 -0.49878,2.35611 l 0.0304,1.87722 0.47719,-1.85208 c 0.26245,-1.01865 0.4869,-2.0789 0.49878,-2.35611 z m -8.445078,-1.69881 c 0,-0.25701 1.142147,-1.36904 1.406116,-1.36904 0.36042,0 0.170589,0.72151 -0.30247,1.14962 -0.514201,0.46534 -1.103646,0.58253 -1.103646,0.21942 z m -4.809404,-4.51601 c -0.236,-0.27563 -0.649414,-0.62541 -0.918697,-0.77728 -0.36403,-0.2053 -0.41311,-0.35346 -0.191359,-0.57762 0.222609,-0.22504 0.541122,-0.0883 1.255913,0.53934 0.526715,0.46246 0.891492,0.94791 0.810616,1.07877 -0.222932,0.36071 -0.483695,0.28895 -0.956473,-0.26321 z"
           style="fill:#a7d888;stroke-width:0.26458332" />
        <path
           inkscape:connector-curvature="0"
           id="path93"
           d="m 93.602496,206.29986 c -1.178049,-0.44906 -2.387031,-1.49543 -2.931369,-2.53706 -0.44637,-0.85417 -0.479603,-1.64447 -0.23404,-5.56561 0.219872,-3.51089 -0.09099,-5.68752 -1.095364,-7.66955 -0.749058,-1.47819 -0.990179,-1.66432 -1.678705,-1.29583 -0.704322,0.37694 -1.034337,-0.16684 -0.388053,-0.63941 0.438412,-0.32058 0.388899,-0.37649 -0.568817,-0.64238 -0.576967,-0.16018 -1.197858,-0.2919 -1.379759,-0.29272 -0.181901,-8.1e-4 -0.330729,-0.12053 -0.330729,-0.26605 0,-0.41276 1.78915,-0.31072 2.686288,0.15321 l 0.807928,0.41779 -0.46093,-0.78029 c -0.320428,-0.54244 -0.611035,-0.74104 -0.953358,-0.65152 -0.40815,0.10673 -0.492457,-0.0237 -0.492595,-0.76198 -1.23e-4,-0.65783 -0.319612,-1.29767 -1.221816,-2.44692 -1.154895,-1.47113 -1.212578,-1.62236 -1.055628,-2.76744 0.261469,-1.90762 0.555431,-1.95171 2.044129,-0.3066 l 1.31685,1.4552 -0.710163,-1.4552 c -0.39059,-0.80037 -1.118006,-2.09418 -1.616479,-2.87514 -0.498474,-0.78097 -0.853156,-1.55847 -0.788182,-1.72779 0.06497,-0.16932 0.539499,-0.53477 1.054501,-0.81212 0.716676,-0.38595 1.021812,-0.43335 1.300546,-0.20202 0.576938,0.47881 2.70887,4.72945 3.679847,7.33686 0.501363,1.34633 1.147581,2.59169 1.486888,2.86546 0.563165,0.45438 0.595266,1.16586 0.03704,0.82085 -0.345839,-0.21374 -0.01466,1.17011 0.463338,1.93608 0.422075,0.67636 1.028639,0.81306 0.784482,0.1768 -0.08833,-0.23018 -0.160599,-0.92794 -0.160599,-1.55058 0,-0.77707 -0.211519,-1.44375 -0.674536,-2.12604 -0.73145,-1.07786 -0.664218,-1.49894 0.157402,-0.98584 0.631866,0.39461 0.672659,0.0638 0.12316,-0.99883 -0.216685,-0.41902 -0.633403,-0.83785 -0.926041,-0.93073 -0.543684,-0.17256 -0.7538,-0.92696 -0.258176,-0.92696 0.15064,0 0.567359,0.19228 0.926041,0.4273 0.624408,0.40913 0.65215,0.40276 0.65215,-0.14968 0,-0.85385 -0.477236,-1.59389 -1.206713,-1.87124 -0.354954,-0.13495 -0.645371,-0.36738 -0.645371,-0.5165 0,-0.35732 0.690129,-0.34521 1.38043,0.0242 0.472321,0.25278 0.527034,0.23058 0.379481,-0.15393 -0.09483,-0.24711 -0.172411,-0.74263 -0.172411,-1.10114 0,-0.35852 -0.297656,-0.9495 -0.661458,-1.3133 -0.972673,-0.97268 -0.892556,-1.45048 0.149686,-0.89268 0.352778,0.1888 0.511772,0.1888 0.511772,0 0,-0.15065 0.178594,-0.2739 0.396875,-0.2739 0.294145,0 0.396875,0.30905 0.396875,1.19395 v 1.19394 l 1.083331,-0.68388 c 1.165762,-0.73591 1.606284,-0.67104 1.087224,0.16011 -0.288222,0.46152 -0.251576,0.51713 0.340745,0.51713 0.434316,0 0.6637,0.14755 0.6637,0.42691 0,0.32414 -0.175141,0.39233 -0.727604,0.28327 -0.400182,-0.079 -0.960666,-0.1818 -1.245519,-0.22846 -0.739275,-0.1211 -1.199225,0.97046 -0.967639,2.29641 0.152787,0.87479 0.213038,0.95509 0.347408,0.46302 0.08941,-0.32742 0.292773,-0.59531 0.451917,-0.59531 0.44573,0 0.3444,0.83847 -0.239813,1.98437 -0.291041,0.57086 -0.529166,1.49492 -0.529166,2.05346 0,1.13856 0.83154,3.02603 0.995608,2.25989 0.0529,-0.24704 -0.03041,-0.6857 -0.185129,-0.9748 -0.408485,-0.76326 -0.347412,-1.61876 0.115562,-1.61876 0.220486,0 0.396875,0.23519 0.396875,0.52917 0,0.68477 0.199346,0.66818 0.79471,-0.0662 0.74285,-0.91623 0.918512,-0.36063 0.293911,0.92963 -0.3077,0.63562 -0.557701,1.4455 -0.555557,1.79974 0.0056,0.92553 0.946156,3.81145 1.139985,3.49783 0.52468,-0.84895 1.046989,-5.5258 1.168229,-10.46053 l 0.134884,-5.4901 h 1.261737 c 0.906458,0 1.306948,0.11784 1.422328,0.41851 0.22023,0.57391 0.16828,6.12378 -0.0815,8.70961 -0.16269,1.68406 -0.12651,2.20789 0.17704,2.56302 0.38873,0.45478 0.22378,1.13816 -0.21001,0.87006 -0.1312,-0.0811 -0.28883,0.12533 -0.35029,0.4587 -0.0615,0.33338 -0.34916,1.73723 -0.639312,3.11968 l -0.527557,2.51354 0.554319,0.77962 0.55432,0.77962 0.6348,-1.39895 c 0.86218,-1.90006 1.0236,-3.28419 0.4798,-4.11415 -0.5632,-0.85953 -0.54359,-1.0321 0.0982,-0.86427 0.47391,0.12393 0.52917,0.008 0.52917,-1.10919 0,-0.68735 -0.17444,-1.47821 -0.38846,-1.76117 -0.4969,-0.65696 -0.50248,-0.91047 -0.0201,-0.91047 0.32499,0 0.3631,-0.54822 0.24373,-3.50573 -0.13059,-3.23559 -0.099,-3.57267 0.41003,-4.37451 0.54826,-0.86362 1.22486,-1.32118 1.51888,-1.02716 0.0846,0.0846 -0.15867,0.52516 -0.54058,0.97903 -0.64736,0.76934 -0.69438,1.00301 -0.69438,3.45076 0,1.44404 0.0539,2.62553 0.11984,2.62553 0.0659,0 0.42311,-0.13817 0.79375,-0.30705 0.46464,-0.2117 0.67391,-0.51571 0.67391,-0.97896 0,-0.52259 -0.0705,-0.60135 -0.3175,-0.35441 -0.38153,0.38153 -0.74083,0.4129 -0.74083,0.0647 0,-0.13906 0.29766,-0.69145 0.66146,-1.22755 0.49892,-0.7352 0.66146,-1.31791 0.66146,-2.37142 0,-1.30041 0.0614,-1.43468 0.89112,-1.94745 0.49012,-0.30291 1.0259,-0.55075 1.19062,-0.55075 0.4376,0 0.38264,4.89499 -0.096,8.54592 -0.39827,3.03821 -0.87718,5.11465 -2.63622,11.43012 -0.64616,2.31987 -1.02594,4.35949 -1.16664,6.26539 -0.18606,2.52033 -0.28908,2.9313 -0.95301,3.80175 -0.41087,0.53869 -1.2907,1.21906 -1.963712,1.51855 -1.590763,0.70789 -4.780801,0.86716 -6.238528,0.31147 z m 6.17026,-1.16134 c 1.583214,-0.8077 1.966024,-1.62153 2.175134,-4.62415 0.18077,-2.59583 0.17616,-2.62498 -0.50808,-3.21353 l -0.6905,-0.59395 -0.29639,1.1673 c -0.32838,1.2933 -0.490112,1.54754 -0.844948,1.32824 -0.139112,-0.086 -0.09334,-0.84594 0.109174,-1.81243 0.465704,-2.22263 0.447374,-2.6937 -0.124973,-3.21167 -0.460069,-0.41636 -0.52231,-0.36686 -1.223077,0.97257 -0.406087,0.77619 -1.691959,2.59225 -2.857493,4.0357 -2.066783,2.55958 -3.090041,4.27414 -3.1018,5.19733 -0.0065,0.51196 1.256307,1.26357 2.123019,1.26357 0.833318,0 1.95487,-0.8984 2.808638,-2.24979 0.701217,-1.10993 1.412532,-1.56311 1.412532,-0.89991 0,0.35059 -0.89198,1.67875 -1.828504,2.72264 l -0.685037,0.76357 1.257617,-0.16331 c 0.691689,-0.0898 1.715299,-0.3968 2.274688,-0.68218 z m -7.691236,-2.46759 c 0.172148,-0.47294 1.252069,-2.04482 2.399825,-3.49306 1.526233,-1.9258 2.005515,-2.70764 1.784142,-2.91041 -1.124685,-1.03019 -2.584553,-1.99986 -2.805375,-1.86339 -0.144303,0.0892 -0.263033,0.78021 -0.263845,1.5356 -0.002,1.8515 -0.377733,3.08181 -1.40941,4.61488 -0.734688,1.09174 -0.831539,1.41151 -0.645253,2.13041 0.278489,1.07473 0.545063,1.07075 0.939916,-0.014 z m 0.265197,-6.72047 c 0.18579,-3.12575 -0.770618,-6.30759 -3.069873,-10.21303 -1.310579,-2.22611 -3.622918,-5.22535 -4.028613,-5.22535 -0.628459,0 -0.132625,1.20558 1.211116,2.94474 1.909081,2.47085 3.096653,4.63148 3.980358,7.24172 0.583161,1.72251 0.742014,2.75717 0.853059,5.55625 0.133313,3.36035 0.145729,3.41825 0.53898,2.51354 0.221389,-0.50932 0.453126,-1.77737 0.514973,-2.81787 z m 6.425575,-4.52216 c 0.703743,-2.46086 1.238228,-6.62827 1.455858,-11.35148 0.20724,-4.49758 0.0942,-5.38557 -0.685449,-5.38557 -0.499852,0 -0.524125,0.1895 -0.524125,4.09194 0,5.99432 -1.070127,12.43138 -2.538803,15.27149 -0.378496,0.73193 -0.372942,0.83406 0.07211,1.32584 0.476517,0.52654 0.489452,0.51683 1.098247,-0.82482 0.338827,-0.74669 0.8438,-2.15403 1.12216,-3.1274 z m -3.035746,2.2641 c 0.850129,-1.64397 0.181639,-5.1052 -1.344735,-6.96261 -0.412219,-0.50162 -0.426574,-0.45669 -0.275755,0.86312 0.203098,1.7773 0.363566,2.17873 0.803464,2.00992 0.277258,-0.10639 0.357363,0.30314 0.365537,1.86879 0.01035,1.98316 -0.344246,2.685 -0.645415,1.27744 -0.318533,-1.48871 -0.948594,-2.92663 -1.492945,-3.40718 -0.556089,-0.49092 -0.559627,-0.48941 -0.388784,0.16603 0.09483,0.3638 0.248755,1.45519 0.342062,2.4253 0.116424,1.21047 0.269204,1.72564 0.486978,1.64207 0.174531,-0.067 0.604842,0.11761 0.956247,0.41017 0.351404,0.29257 0.665626,0.5359 0.698269,0.54074 0.03264,0.005 0.255428,-0.37036 0.495077,-0.83379 z m 8.287524,-10.90622 c 0.0209,-0.48731 0.004,-0.48814 -0.50758,-0.0251 -0.44117,0.39926 -0.52411,0.79104 -0.49878,2.35611 l 0.0304,1.87722 0.47719,-1.85208 c 0.26245,-1.01865 0.4869,-2.0789 0.49878,-2.35611 z m -8.445078,-1.69881 c 0,-0.25701 1.142147,-1.36904 1.406116,-1.36904 0.36042,0 0.170589,0.72151 -0.30247,1.14962 -0.514201,0.46534 -1.103646,0.58253 -1.103646,0.21942 z m -4.809404,-4.51601 c -0.236,-0.27563 -0.649414,-0.62541 -0.918697,-0.77728 -0.36403,-0.2053 -0.41311,-0.35346 -0.191359,-0.57762 0.222609,-0.22504 0.541122,-0.0883 1.255913,0.53934 0.526715,0.46246 0.891492,0.94791 0.810616,1.07877 -0.222932,0.36071 -0.483695,0.28895 -0.956473,-0.26321 z"
           style="fill:#9fa09c;stroke-width:0.26458332" />
        <path
           inkscape:connector-curvature="0"
           id="path91"
           d="m 94.388368,206.45842 c -1.808323,-0.44023 -3.2864,-1.60571 -3.818966,-3.01131 -0.184078,-0.48583 -0.223883,-2.18934 -0.114374,-4.89479 0.188106,-4.64718 -0.146136,-6.72387 -1.384006,-8.59902 -0.606807,-0.91921 -0.742407,-0.9934 -1.511099,-0.82684 -0.830874,0.18004 -0.836801,0.17442 -0.368084,-0.3487 0.464907,-0.51887 0.455985,-0.53879 -0.370212,-0.8268 -0.465629,-0.16232 -1.066956,-0.29513 -1.336283,-0.29513 -0.269326,0 -0.489684,-0.11906 -0.489684,-0.26458 0,-0.40096 1.619948,-0.3134 2.477639,0.13392 1.014045,0.52886 1.037032,0.51417 0.579604,-0.3704 -0.226713,-0.43841 -0.592463,-0.74938 -0.855776,-0.7276 -0.333464,0.0276 -0.50459,-0.22635 -0.622639,-0.92394 -0.09295,-0.54929 -0.636792,-1.5573 -1.267684,-2.34967 -0.607692,-0.76323 -1.090807,-1.64003 -1.07359,-1.94844 0.0618,-1.10703 0.375871,-2.14825 0.647995,-2.14825 0.152476,0 0.835915,0.62905 1.518756,1.3979 0.68284,0.76884 1.241528,1.33099 1.241528,1.24922 0,-0.30843 -1.688399,-3.48541 -2.416425,-4.54687 -0.417216,-0.60831 -0.758575,-1.22367 -0.758575,-1.36749 0,-0.40611 1.819273,-1.43217 2.247781,-1.26774 0.452523,0.17365 2.910841,5.02047 3.977616,7.84227 0.412604,1.09141 0.996385,2.19186 1.297291,2.44545 0.414236,0.3491 0.466029,0.514 0.213267,0.679 -0.502451,0.32798 -0.117294,1.76208 0.665899,2.47942 l 0.670204,0.61384 -0.170404,-0.89297 c -0.09372,-0.49113 -0.170404,-1.3452 -0.170404,-1.89793 0,-0.69865 -0.211647,-1.25649 -0.694381,-1.83018 -0.768222,-0.91298 -0.705933,-1.2691 0.142553,-0.815 0.964398,0.51613 0.677072,-0.72783 -0.394908,-1.70973 -0.944169,-0.86482 -0.904988,-1.51288 0.04786,-0.79163 0.73064,0.55305 0.898875,0.48644 0.898875,-0.35593 0,-0.75619 -0.527841,-1.40685 -1.389063,-1.71227 -0.254661,-0.0903 -0.463021,-0.30089 -0.463021,-0.46796 0,-0.2966 0.411877,-0.24799 1.429794,0.16877 0.461003,0.18875 0.490869,0.11021 0.351946,-0.92555 -0.09474,-0.7063 -0.409842,-1.40112 -0.838185,-1.84821 -0.703401,-0.7342 -0.649048,-1.33459 0.06732,-0.74359 0.317199,0.26169 0.420721,0.26122 0.509413,-0.002 0.06122,-0.1819 0.273462,-0.33073 0.471643,-0.33073 0.23989,0 0.387284,0.40522 0.440972,1.21231 l 0.08064,1.21231 1.023207,-0.69622 c 1.095191,-0.7452 1.533589,-0.69458 1.025848,0.11844 -0.268296,0.42961 -0.229708,0.51157 0.2746,0.58328 0.322719,0.0459 0.52723,0.20249 0.45447,0.34801 -0.138026,0.27605 -0.469692,0.27474 -1.601651,-0.006 -0.554332,-0.13765 -0.732439,-0.043 -0.992188,0.52705 -0.375079,0.82321 -0.420639,2.69104 -0.07091,2.90718 0.135117,0.0835 0.283945,-0.11782 0.33073,-0.4474 0.04678,-0.32959 0.204124,-0.53971 0.349645,-0.46695 0.350046,0.17502 0.193737,1.30706 -0.281847,2.04121 -0.208786,0.3223 -0.379611,1.07822 -0.379611,1.67981 0,1.31213 0.741254,3.05189 1.133282,2.65986 0.176389,-0.17639 0.1198,-0.56969 -0.169766,-1.1799 -0.540696,-1.13944 -0.553929,-1.7614 -0.03748,-1.7614 0.254432,0 0.400035,0.26115 0.405678,0.72761 l 0.0088,0.7276 0.496629,-0.59531 c 0.44207,-0.52991 1.073266,-0.80598 1.073266,-0.46942 0,0.0692 -0.23768,0.51573 -0.528178,0.99219 -0.290497,0.47646 -0.526869,1.28301 -0.525269,1.79233 0.0034,1.09288 0.908975,4.15198 1.125396,3.80181 0.626864,-1.01429 1.474832,-9.76859 1.406202,-14.51743 l -0.02294,-1.5875 1.23293,-0.0797 1.232936,-0.0797 0.1828,1.95081 c 0.10055,1.07295 0.065,3.60379 -0.079,5.6241 -0.21754,3.05276 -0.19822,3.77026 0.11434,4.24729 0.34068,0.51995 0.32545,0.58723 -0.16179,0.71465 -0.34624,0.0905 -0.53913,0.36159 -0.54136,0.76074 -0.002,0.34104 -0.23701,1.75117 -0.522447,3.13362 l -0.518965,2.51354 0.627707,0.62842 0.627705,0.62842 0.58443,-1.28988 c 0.82271,-1.81582 0.972,-3.35783 0.40835,-4.21806 -0.50923,-0.77718 -0.3658,-1.15633 0.24551,-0.64899 0.35288,0.29286 0.40327,0.15514 0.40327,-1.10236 0,-0.85393 -0.15763,-1.64543 -0.38846,-1.95062 -0.50983,-0.67405 -0.50141,-0.91047 0.0324,-0.91047 0.39305,0 0.42043,-0.34087 0.26836,-3.3414 -0.18262,-3.60313 0.0883,-4.82379 1.20317,-5.42043 0.81655,-0.43701 0.86469,-0.0657 0.10806,0.83346 -0.65182,0.77465 -0.69438,0.99349 -0.69438,3.57074 v 2.74552 l 0.79208,-0.45071 c 0.52921,-0.30114 0.79263,-0.65903 0.79375,-1.07843 0.001,-0.49519 -0.0733,-0.5655 -0.3534,-0.33302 -0.66395,0.55103 -0.68131,-0.0257 -0.0296,-0.98471 0.49455,-0.72779 0.64973,-1.30347 0.6511,-2.41546 0.002,-1.35476 0.0648,-1.50282 0.87627,-2.05524 1.58027,-1.07582 1.60347,-1.02181 1.42049,3.30729 -0.20203,4.77988 -0.82284,8.28402 -2.56639,14.48593 -0.99651,3.54461 -1.39248,5.47294 -1.54844,7.54063 -0.30758,4.0778 -1.04885,5.13768 -4.160001,5.94803 -1.632798,0.42529 -2.906125,0.47204 -4.210194,0.15456 z m 5.073018,-1.18885 c 1.935824,-0.90132 2.298614,-1.58563 2.510194,-4.73487 0.17529,-2.60905 0.17213,-2.62839 -0.52703,-3.22979 l -0.70338,-0.60502 -0.33634,1.1535 c -0.34116,1.17002 -0.857088,1.81276 -0.857088,1.06776 0,-0.22417 0.143623,-1.24513 0.319163,-2.26879 0.301935,-1.76076 0.289305,-1.89107 -0.23402,-2.4144 l -0.553182,-0.55318 -0.829917,1.54959 c -0.456455,0.85227 -1.709106,2.63359 -2.783669,3.95848 -2.04188,2.51755 -3.062124,4.21884 -3.062124,5.10619 0,0.71076 0.980981,1.34846 2.074373,1.34846 0.928326,0 2.07633,-0.94267 3.384943,-2.77949 0.310489,-0.43581 0.647558,-0.71329 0.749041,-0.61661 0.245076,0.23347 -0.254063,1.16003 -1.366256,2.5362 l -0.908779,1.12448 0.877609,-0.003 c 0.482686,-10e-4 1.493594,-0.28938 2.246462,-0.63992 z m -7.58656,-1.88417 c 0,-0.65215 0.693359,-1.82224 2.060879,-3.47788 0.697818,-0.84483 1.598359,-1.97347 2.001204,-2.50808 l 0.732445,-0.97201 -1.47658,-1.09081 c -0.812119,-0.59995 -1.593231,-1.01872 -1.735806,-0.93061 -0.142574,0.0881 -0.259225,0.72689 -0.259225,1.4195 0,1.7797 -0.680615,3.85388 -1.613095,4.91592 -0.749234,0.85333 -0.779435,0.97117 -0.507611,1.98065 0.282562,1.04935 0.797789,1.47774 0.797789,0.66332 z m 0.471891,-7.43494 c 0.18579,-3.12575 -0.770618,-6.30759 -3.069873,-10.21303 -1.310579,-2.22611 -3.622918,-5.22535 -4.028613,-5.22535 -0.628459,0 -0.132625,1.20558 1.211116,2.94474 1.909081,2.47085 3.096653,4.63148 3.980358,7.24172 0.583161,1.72251 0.742014,2.75717 0.853059,5.55625 0.133313,3.36035 0.145729,3.41825 0.53898,2.51354 0.221389,-0.50932 0.453126,-1.77737 0.514973,-2.81787 z m 6.425575,-4.52216 c 0.703743,-2.46086 1.238228,-6.62827 1.455858,-11.35148 0.20724,-4.49758 0.0942,-5.38557 -0.685449,-5.38557 -0.499852,0 -0.524125,0.1895 -0.524125,4.09194 0,5.99432 -1.070127,12.43138 -2.538803,15.27149 -0.378496,0.73193 -0.372942,0.83406 0.07211,1.32584 0.476517,0.52654 0.489452,0.51683 1.098247,-0.82482 0.338827,-0.74669 0.8438,-2.15403 1.12216,-3.1274 z m -2.835557,1.98172 c 0.345336,-0.90425 0.3801,-1.42933 0.177179,-2.67612 -0.266352,-1.63653 -1.095034,-3.61313 -1.738784,-4.14739 -0.322261,-0.26745 -0.383401,-0.17564 -0.382162,0.5739 0.0018,1.08034 0.555373,3.14149 0.719323,2.67823 0.288064,-0.81394 0.486521,-0.17593 0.514371,1.65365 0.03203,2.10429 -0.296519,2.6496 -0.597799,0.99218 -0.205212,-1.12892 -1.266457,-3.37273 -1.730968,-3.65981 -0.226256,-0.13983 -0.265692,0.0872 -0.146098,0.84117 0.0901,0.56799 0.243684,1.71732 0.341307,2.55406 0.157089,1.34645 0.24563,1.52136 0.770128,1.52136 0.325949,0 0.740853,0.17859 0.922011,0.39687 0.503816,0.60706 0.685448,0.49221 1.151492,-0.7281 z m 8.087335,-10.50934 0.0216,-0.65411 -0.55244,0.55244 c -0.56866,0.56866 -0.67226,1.20978 -0.52833,3.26932 l 0.0832,1.19062 0.47719,-1.85208 c 0.26245,-1.01864 0.4869,-2.14643 0.49878,-2.50619 z m -8.440506,-1.79329 c 0.0054,-0.234 1.187661,-1.38906 1.421783,-1.38906 0.343351,0 0.137571,0.73307 -0.322709,1.14962 -0.501493,0.45384 -1.107052,0.58577 -1.099074,0.23944 z m -4.599047,-4.43406 c -0.08424,-0.21954 -0.454171,-0.53631 -0.822057,-0.70393 -0.78112,-0.3559 -0.878653,-0.74899 -0.185838,-0.74899 0.52988,0 1.633621,1.03941 1.633621,1.53841 0,0.44854 -0.444083,0.38787 -0.625726,-0.0855 z"
           style="fill:#8cac75;stroke-width:0.26458332" />
        <path
           inkscape:connector-curvature="0"
           id="path89"
           d="m 94.388368,206.47339 c -1.372358,-0.35997 -2.460382,-1.05599 -3.227469,-2.06464 l -0.741281,-0.97472 0.08359,-4.78025 c 0.07405,-4.23458 0.02127,-4.97994 -0.462379,-6.52968 -0.300285,-0.96219 -0.798101,-2.06997 -1.106256,-2.46173 -0.472295,-0.60042 -0.69054,-0.68406 -1.389705,-0.5326 -0.815659,0.17669 -0.821516,0.17085 -0.353033,-0.35201 0.464907,-0.51887 0.455985,-0.53879 -0.370212,-0.8268 -0.465629,-0.16232 -1.066956,-0.29513 -1.336283,-0.29513 -0.269326,0 -0.489684,-0.11906 -0.489684,-0.26458 0,-0.39272 1.620309,-0.30271 2.38125,0.13229 0.980871,0.56071 1.115979,0.48207 0.666166,-0.38777 -0.264607,-0.5117 -0.54309,-0.73195 -0.800545,-0.63315 -0.284261,0.10908 -0.394788,-0.0313 -0.394788,-0.50135 0,-0.64615 -0.785169,-1.98662 -2.042001,-3.4862 -0.561087,-0.66946 -0.625532,-0.94 -0.472688,-1.98438 0.260363,-1.77904 0.522105,-1.86545 1.652352,-0.54546 0.547046,0.63889 1.207838,1.40574 1.468427,1.70412 0.628717,0.71991 -1.258992,-3.11931 -2.228462,-4.53223 -0.417383,-0.60831 -0.757404,-1.20362 -0.755603,-1.32292 0.0054,-0.35783 1.872115,-1.45521 2.237134,-1.31514 0.437944,0.16806 3.029998,5.28294 3.975642,7.8451 0.402816,1.09141 0.984695,2.19186 1.293066,2.44545 0.423111,0.34795 0.478766,0.51454 0.226838,0.679 -0.502451,0.32798 -0.117294,1.76208 0.665899,2.47942 l 0.670204,0.61384 -0.170404,-0.89297 c -0.09372,-0.49113 -0.170404,-1.3452 -0.170404,-1.89793 0,-0.69865 -0.211647,-1.25649 -0.694381,-1.83018 -0.768222,-0.91298 -0.705933,-1.2691 0.142553,-0.815 0.951569,0.50926 0.682252,-0.72843 -0.375593,-1.72611 -1.034853,-0.97599 -0.84725,-1.4714 0.234864,-0.62021 l 0.692557,0.54477 V 180.44 c 0,-0.90501 -0.472236,-1.53863 -1.389063,-1.86377 -0.254661,-0.0903 -0.463021,-0.30089 -0.463021,-0.46796 0,-0.2966 0.411877,-0.24799 1.429794,0.16877 0.461003,0.18875 0.490869,0.11021 0.351946,-0.92555 -0.09474,-0.7063 -0.409842,-1.40112 -0.838185,-1.84821 -0.690875,-0.72112 -0.654656,-1.34082 0.04445,-0.76061 0.291972,0.24232 0.427031,0.22762 0.608639,-0.0662 0.348062,-0.56318 0.735134,-0.0236 0.833067,1.16133 l 0.08383,1.01424 1.023207,-0.69659 c 1.121243,-0.76333 1.422199,-0.73813 0.983108,0.0823 -0.24392,0.45577 -0.19886,0.5458 0.309293,0.61797 0.327145,0.0465 0.535277,0.20355 0.462517,0.34907 -0.138026,0.27605 -0.469692,0.27474 -1.601651,-0.006 -0.554332,-0.13765 -0.732439,-0.043 -0.992188,0.52705 -0.370881,0.814 -0.437899,3.54923 -0.07768,3.17023 0.131396,-0.13825 0.280224,-0.48102 0.330729,-0.76171 0.05051,-0.28069 0.21089,-0.45929 0.356411,-0.39687 0.352807,0.15131 0.191188,1.26285 -0.281812,1.93815 -0.208805,0.29811 -0.379646,1.06308 -0.379646,1.69994 0,1.36382 0.732584,3.12467 1.133282,2.72397 0.176389,-0.17639 0.1198,-0.56969 -0.169766,-1.1799 -0.540696,-1.13944 -0.553929,-1.7614 -0.03748,-1.7614 0.254432,0 0.400035,0.26115 0.405678,0.72761 l 0.0088,0.7276 0.496629,-0.59531 c 0.436715,-0.52349 1.073266,-0.80708 1.073266,-0.47815 0,0.0644 -0.252799,0.54563 -0.561775,1.06931 -0.619097,1.04929 -0.588086,2.27113 0.120978,4.76665 l 0.375888,1.32292 0.280249,-1.05834 c 0.773715,-2.92186 1.4696,-10.18449 1.318285,-13.75833 l -0.07842,-1.85208 1.22438,-0.0793 1.224382,-0.0793 0.16843,2.19599 c 0.0926,1.20779 0.0582,3.74379 -0.0765,5.63556 -0.19765,2.77588 -0.17518,3.54911 0.11648,4.00719 0.31891,0.50088 0.30515,0.58232 -0.117,0.69271 -0.35383,0.0925 -0.52704,0.49589 -0.66522,1.54906 -0.10276,0.78318 -0.375305,2.17816 -0.605665,3.09996 l -0.418837,1.676 0.672214,0.67221 0.672208,0.67221 0.58729,-1.28988 c 0.8294,-1.82165 0.99311,-3.66925 0.3847,-4.34154 -0.54702,-0.60445 -0.33439,-1.02404 0.2663,-0.52551 0.35368,0.29353 0.40327,0.13948 0.40327,-1.25282 0,-1.08833 -0.1248,-1.69107 -0.39688,-1.91688 -0.53121,-0.44086 -0.50592,-0.89221 0.0383,-0.68338 0.39474,0.15148 0.42154,-0.1592 0.28859,-3.34513 -0.15779,-3.78123 0.0497,-4.76148 1.15403,-5.45113 0.84658,-0.5287 0.91397,-0.16286 0.13952,0.75752 -0.65154,0.77431 -0.69438,0.99412 -0.69438,3.56277 v 2.73755 l 0.79375,-0.39598 c 0.57081,-0.28476 0.79375,-0.58542 0.79375,-1.07045 0,-0.53425 -0.0738,-0.61321 -0.35507,-0.37979 -0.66395,0.55103 -0.68131,-0.0257 -0.0296,-0.98471 0.49455,-0.72779 0.64973,-1.30347 0.6511,-2.41546 0.002,-1.36627 0.0602,-1.49969 0.91186,-2.07963 1.45099,-0.98805 1.56671,-0.70664 1.38641,3.37137 -0.18601,4.20695 -0.89885,8.56675 -2.03755,12.46187 -1.47829,5.0567 -2.11379,8.03085 -2.12008,9.92187 -0.01,2.98407 -1.01121,4.57095 -3.393944,5.37879 -1.198462,0.40632 -3.959957,0.59764 -4.934957,0.3419 z m 2.437422,-2.30915 c 0.405667,-0.52295 0.935688,-1.20682 1.177823,-1.51972 0.242135,-0.31289 0.518805,-0.49067 0.614822,-0.39505 0.261643,0.26055 -0.524748,1.63135 -1.574238,2.74414 l -0.929096,0.98513 1.274778,-0.12249 c 1.679076,-0.16134 3.209111,-0.93586 3.900221,-1.97433 0.43435,-0.65266 0.59289,-1.41231 0.71223,-3.41266 l 0.15351,-2.57312 -0.77488,-0.77488 c -0.71969,-0.71969 -0.77488,-0.73514 -0.77488,-0.21687 0,0.73693 -0.819715,2.61233 -0.969681,2.21851 -0.06427,-0.16879 0.04981,-1.18958 0.253515,-2.26843 0.358606,-1.89917 0.352096,-1.98445 -0.204509,-2.6825 l -0.574886,-0.72098 -0.500902,1.1108 c -0.275496,0.61094 -1.193879,2.0157 -2.04085,3.12169 -0.846972,1.10599 -2.06706,2.70324 -2.711308,3.54945 -1.858516,2.44113 -1.868735,3.87787 -0.03113,4.37631 1.056738,0.28664 2.01386,-0.17446 2.999461,-1.445 z m -4.619559,-1.4943 c 0.255033,-0.61792 1.244899,-2.07599 2.199702,-3.24015 2.521965,-3.07497 2.4783,-2.84362 0.774298,-4.10244 -0.80522,-0.59485 -1.580688,-1.00945 -1.723263,-0.92134 -0.142574,0.0881 -0.259225,0.72958 -0.259225,1.42547 0,1.76332 -0.613622,3.61666 -1.606508,4.85217 -0.797878,0.99285 -0.826147,1.10309 -0.533431,2.08009 0.170003,0.56742 0.393614,1.03122 0.496914,1.03068 0.103299,-5.3e-4 0.39648,-0.50656 0.651513,-1.12448 z m 0.205112,-5.93115 c 0.614864,-3.77787 -1.619253,-9.70664 -5.49161,-14.57332 -1.62005,-2.03604 -1.924073,-2.2383 -1.924073,-1.28005 0,0.42051 0.61854,1.51625 1.613097,2.85761 1.916405,2.58466 3.142214,4.9356 3.977522,7.62836 0.501293,1.61601 0.613389,2.58099 0.619558,5.33346 l 0.0075,3.36047 0.4804,-0.93463 c 0.26422,-0.51405 0.587129,-1.59041 0.717575,-2.3919 z m 6.029356,-4.13094 c 1.075086,-3.25277 1.628111,-7.21976 1.822881,-13.0761 l 0.16099,-4.8405 h -0.668767 -0.668766 l -0.142101,5.09323 c -0.162046,5.80811 -0.596901,8.62758 -1.942142,12.59229 -0.885664,2.61024 -0.90637,2.75319 -0.44856,3.09665 0.660089,0.49521 0.892222,0.1426 1.886465,-2.86557 z m -2.488605,0.76195 c 0.608601,-1.5936 0.186312,-4.10568 -0.991816,-5.90004 l -0.833284,-1.26914 -0.08309,0.8408 c -0.115185,1.16558 0.410553,3.00442 0.814701,2.84953 0.233536,-0.0895 0.336085,0.39189 0.368716,1.73086 0.02486,1.02017 -0.06444,1.85485 -0.198438,1.85485 -0.134002,0 -0.24364,-0.17443 -0.24364,-0.38763 0,-1.10713 -1.668946,-4.6462 -2.023733,-4.29141 -0.06266,0.0627 0.02544,1.2006 0.19577,2.52877 0.251486,1.96099 0.393138,2.41486 0.753674,2.41486 0.244191,0 0.675098,0.1748 0.957573,0.38846 0.738669,0.5587 0.792056,0.52709 1.283567,-0.75991 z m 8.071976,-10.44272 c 0.0185,-0.5385 -0.0369,-0.5792 -0.38973,-0.28635 -0.79495,0.65975 -0.96244,1.32346 -0.75458,2.99017 l 0.20304,1.62805 0.45984,-1.85208 c 0.25291,-1.01864 0.46955,-2.13455 0.48143,-2.47979 z m -8.261212,-1.79016 c -0.178804,-0.17881 0.867362,-1.40624 1.205197,-1.41402 0.376045,-0.009 0.197376,0.70813 -0.285417,1.14505 -0.531469,0.48097 -0.667885,0.52086 -0.91978,0.26897 z m -4.778341,-4.46359 c -0.08424,-0.21954 -0.454171,-0.53631 -0.822057,-0.70393 -0.721243,-0.32862 -0.893934,-0.74899 -0.30769,-0.74899 0.525643,0 1.755473,1.03293 1.755473,1.47441 0,0.49939 -0.431534,0.48457 -0.625726,-0.0215 z"
           style="fill:#6f9755;stroke-width:0.26458332" />
        <path
           inkscape:connector-curvature="0"
           id="path87"
           d="m 94.388368,206.47339 c -1.370787,-0.35956 -2.459982,-1.05555 -3.227469,-2.06233 l -0.741281,-0.9724 -0.0081,-5.31173 c -0.0085,-5.5868 -0.148192,-6.4794 -1.271073,-8.12097 -0.517724,-0.75688 -0.749136,-0.88356 -1.500225,-0.82129 -0.851173,0.0706 -0.869523,0.0531 -0.441596,-0.41972 0.422942,-0.46735 0.410857,-0.50959 -0.22925,-0.80124 -0.371651,-0.16933 -0.967784,-0.30788 -1.324738,-0.30788 -0.356955,0 -0.649009,-0.11906 -0.649009,-0.26458 0,-0.39272 1.620309,-0.30271 2.38125,0.13229 0.980871,0.56071 1.115979,0.48207 0.666166,-0.38777 -0.264607,-0.5117 -0.54309,-0.73195 -0.800545,-0.63315 -0.292952,0.11241 -0.395398,-0.0435 -0.397153,-0.60442 -0.0016,-0.50287 -0.450385,-1.33161 -1.340753,-2.4757 -1.275045,-1.6384 -1.330252,-1.77614 -1.166493,-2.91042 0.09454,-0.65484 0.264605,-1.28718 0.377919,-1.40519 0.113314,-0.11801 0.890572,0.53684 1.727239,1.45521 l 1.521214,1.66977 -1.062078,-2.11667 c -0.584143,-1.16416 -1.371195,-2.56843 -1.749006,-3.1206 -0.377809,-0.55216 -0.685453,-1.08795 -0.683652,-1.19062 0.0059,-0.33592 1.890054,-1.4181 2.237134,-1.28492 0.437944,0.16806 3.029998,5.28294 3.975642,7.8451 0.402816,1.09141 0.984695,2.19186 1.293066,2.44545 0.423111,0.34795 0.478766,0.51454 0.226838,0.679 -0.502246,0.32785 -0.117441,1.76186 0.66533,2.47942 l 0.669636,0.61384 -0.166924,-1.05833 c -0.09181,-0.58209 -0.168234,-1.43615 -0.169835,-1.89793 -0.0018,-0.50625 -0.265532,-1.1517 -0.664371,-1.6257 -0.363802,-0.43235 -0.661458,-0.8582 -0.661458,-0.94634 0,-0.29966 0.489963,-0.16165 0.907143,0.25553 0.377976,0.37798 0.415774,0.35075 0.415774,-0.29948 0,-0.4749 -0.311658,-1.0092 -0.927421,-1.58994 -1.044281,-0.98488 -0.842796,-1.4679 0.252823,-0.60608 l 0.710515,0.55889 -0.0841,-1.01701 c -0.06673,-0.80696 -0.263415,-1.13742 -0.952323,-1.60007 -0.893546,-0.60007 -0.740127,-1.13134 0.183899,-0.63682 0.761271,0.40742 0.816612,0.36405 0.816612,-0.64001 0,-0.63987 -0.23797,-1.18787 -0.787728,-1.81401 -0.768607,-0.87539 -0.823832,-1.54225 -0.07635,-0.9219 0.291972,0.24232 0.427031,0.22762 0.608639,-0.0662 0.348062,-0.56318 0.735134,-0.0236 0.833067,1.16133 l 0.08383,1.01424 1.023207,-0.69659 c 1.121243,-0.76333 1.422199,-0.73813 0.983108,0.0823 -0.24392,0.45577 -0.19886,0.5458 0.309293,0.61797 0.327145,0.0465 0.535277,0.20355 0.462517,0.34907 -0.139089,0.27818 -0.46093,0.27518 -1.648818,-0.0154 -0.616614,-0.15081 -0.762349,-0.0727 -0.992188,0.53183 -0.337378,0.88737 -0.362718,3.52399 -0.03051,3.17447 0.131396,-0.13825 0.280224,-0.48102 0.330729,-0.76171 0.05051,-0.28069 0.21089,-0.45929 0.356411,-0.39687 0.352807,0.15131 0.191188,1.26285 -0.281812,1.93815 -0.208805,0.29811 -0.379646,1.06308 -0.379646,1.69994 0,1.17128 0.657426,2.95767 1.08848,2.95767 0.305098,0 0.303438,-0.87923 -0.0023,-1.20385 -0.130189,-0.13825 -0.321342,-0.65242 -0.424783,-1.1426 -0.14394,-0.68211 -0.105628,-0.86377 0.163265,-0.77414 0.193237,0.0644 0.421594,0.40595 0.507462,0.75896 l 0.156126,0.64184 0.377841,-0.59531 c 0.207812,-0.32742 0.527794,-0.59531 0.711071,-0.59531 0.442029,0 0.427747,0.0741 -0.228545,1.18647 -0.619097,1.04929 -0.588086,2.27113 0.120978,4.76665 l 0.375888,1.32292 0.299973,-1.09751 c 0.659895,-2.41435 1.137423,-6.8051 1.204311,-11.07333 l 0.07049,-4.49791 1.192007,-0.0791 1.192002,-0.0791 0.17127,2.19578 c 0.0942,1.20768 0.059,3.73571 -0.0781,5.61785 -0.15512,2.12836 -0.1557,3.59715 -0.002,3.88521 0.33355,0.62323 0.31299,0.76251 -0.11257,0.76251 -0.24094,0 -0.41869,0.49556 -0.53611,1.49462 -0.0966,0.82204 -0.368137,2.26085 -0.603379,3.19735 l -0.427713,1.70274 0.672214,0.67221 0.672208,0.67221 0.58729,-1.28988 c 0.8294,-1.82165 0.99311,-3.66925 0.3847,-4.34154 -0.54702,-0.60445 -0.33439,-1.02404 0.2663,-0.52551 0.35368,0.29353 0.40327,0.13948 0.40327,-1.25282 0,-1.08833 -0.1248,-1.69107 -0.39688,-1.91688 -0.52985,-0.43973 -0.5065,-0.89243 0.0353,-0.68452 0.39056,0.14988 0.41903,-0.17225 0.29558,-3.34513 -0.14696,-3.77703 0.0628,-4.771 1.15001,-5.44999 0.85414,-0.53342 0.94367,-0.12532 0.15346,0.69948 -0.67715,0.70679 -0.70832,0.86296 -0.70832,3.54884 v 2.80952 l 0.79375,-0.39598 c 0.57081,-0.28476 0.79375,-0.58542 0.79375,-1.07045 0,-0.53425 -0.0738,-0.61321 -0.35507,-0.37979 -0.65387,0.54266 -0.66482,0.002 -0.0192,-0.94979 0.48609,-0.7163 0.63967,-1.29645 0.64216,-2.42588 0.003,-1.40654 0.0522,-1.51615 0.93639,-2.08896 0.51322,-0.33249 1.06523,-0.52288 1.22669,-0.42309 0.20541,0.12695 0.24292,1.26194 0.1249,3.77953 -0.25263,5.38919 -0.66331,7.58558 -2.94846,15.76892 -0.63976,2.29105 -1.03339,4.38545 -1.17882,6.27222 -0.27169,3.52476 -0.66361,4.30369 -2.66464,5.29591 -1.563373,0.77521 -4.265227,1.13975 -5.685792,0.76714 z m 1.919106,-1.83416 c 0.690742,-0.70006 1.452188,-1.56327 1.692103,-1.91823 0.239915,-0.35496 0.523123,-0.56061 0.62935,-0.457 0.248042,0.24192 -1.354011,2.74838 -2.083085,3.25904 -0.534276,0.37422 -0.52044,0.38898 0.363342,0.38756 1.460569,-0.002 2.844904,-0.49272 3.828216,-1.35608 0.98938,-0.86869 1.00164,-0.9137 1.43219,-5.25702 0.17525,-1.76798 0.66857,-4.125 1.35671,-6.4823 1.82653,-6.2569 2.63603,-10.90384 2.63603,-15.13215 0,-1.83036 -0.0639,-2.15694 -0.39688,-2.02915 -0.28144,0.108 -0.39709,0.54808 -0.39762,1.51305 -0.002,4.00242 -1.31005,10.04113 -3.26551,15.07774 -0.63032,1.62347 -1.29724,3.67996 -1.48206,4.56998 -0.644976,3.10595 -1.305839,3.08765 -0.719072,-0.0199 0.377132,-1.99729 0.373512,-2.04334 -0.214225,-2.72662 l -0.59783,-0.69502 -0.545424,1.23303 c -0.299983,0.67816 -1.298124,2.2016 -2.218091,3.38543 -3.21312,4.13469 -3.690228,4.88208 -3.842818,6.01972 -0.08167,0.60886 -0.10304,1.10881 -0.0475,1.111 0.05554,0.002 0.577233,0.17556 1.159317,0.38526 0.582083,0.20971 1.148025,0.38651 1.257648,0.3929 0.109623,0.006 0.764467,-0.56117 1.455209,-1.26124 z m -3.52974,-3.0946 c 0.240762,-0.36745 1.207664,-1.62173 2.14867,-2.78729 0.941007,-1.16556 1.710922,-2.17193 1.710922,-2.23638 0,-0.26397 -2.938057,-2.2647 -3.141267,-2.1391 -0.121074,0.0748 -0.288958,0.95697 -0.373076,1.96033 -0.160074,1.90936 -0.92204,3.90108 -1.794487,4.69063 -0.620554,0.56159 -0.635448,0.90045 -0.09563,2.17578 l 0.416372,0.98369 0.345374,-0.98979 c 0.189956,-0.54438 0.542362,-1.29042 0.783124,-1.65787 z m -0.910545,-2.57786 c 1.213975,-2.77585 0.808952,-6.48457 -1.165498,-10.67227 -1.204787,-2.55529 -3.186537,-5.64288 -4.740356,-7.38555 l -0.943648,-1.05833 -0.01102,0.87276 c -0.0084,0.66544 0.406818,1.45109 1.747906,3.3073 3.303841,4.57286 4.419694,7.7921 4.443464,12.81942 0.0084,1.78263 0.05178,3.24115 0.09635,3.24115 0.04456,0 0.302322,-0.50602 0.572797,-1.12448 z m 5.962548,-4.54273 c 1.498089,-3.38744 2.224533,-7.72104 2.431853,-14.50727 l 0.15965,-5.22552 h -0.662319 -0.662315 l -0.168551,4.96093 c -0.218538,6.4322 -0.948476,10.64794 -2.419612,13.97444 l -0.632503,1.43021 0.571856,0.40054 c 0.314521,0.2203 0.611447,0.40054 0.659836,0.40054 0.04839,0 0.373336,-0.64524 0.722105,-1.43387 z m -1.877643,-1.05424 c 0.608601,-1.5936 0.186312,-4.10568 -0.991816,-5.90004 l -0.833284,-1.26914 -0.08309,0.8408 c -0.115185,1.16558 0.410553,3.00442 0.814701,2.84953 0.233536,-0.0895 0.336085,0.39189 0.368716,1.73086 0.02486,1.02017 -0.04549,1.85485 -0.156335,1.85485 -0.110845,0 -0.343055,-0.63237 -0.516022,-1.40526 -0.29183,-1.30404 -1.516797,-3.55044 -1.788111,-3.27913 -0.0656,0.0656 0.02009,1.20595 0.190427,2.53412 0.251486,1.96099 0.393138,2.41486 0.753674,2.41486 0.244191,0 0.675098,0.1748 0.957573,0.38846 0.738669,0.5587 0.792056,0.52709 1.283567,-0.75991 z m -5.264262,-8.78194 c -0.516589,-1.58684 -1.651594,-4.34106 -2.522233,-6.12051 -1.559502,-3.18736 -1.592814,-3.23086 -2.246172,-2.93318 -0.629195,0.28669 -0.64204,0.33446 -0.250566,0.93192 1.085365,1.65648 2.009104,3.38605 2.751892,5.15254 1.058197,2.51659 3.0361,6.35152 3.131766,6.07214 0.04101,-0.11977 -0.348097,-1.51608 -0.864687,-3.10291 z m 13.336238,-1.62008 c 0.03,-0.81527 -0.63496,-0.51527 -1.04338,0.47074 -0.21654,0.52277 -0.25267,1.26351 -0.112,2.29609 l 0.20768,1.52434 0.46305,-1.85208 c 0.25468,-1.01864 0.47277,-2.11624 0.48465,-2.43909 z m -8.261212,-1.83086 c -0.178804,-0.17881 0.867362,-1.40624 1.205197,-1.41402 0.376045,-0.009 0.197376,0.70813 -0.285417,1.14505 -0.531469,0.48097 -0.667885,0.52086 -0.91978,0.26897 z m -4.778341,-4.46359 c -0.08424,-0.21954 -0.454171,-0.53631 -0.822057,-0.70393 -0.721243,-0.32862 -0.893934,-0.74899 -0.30769,-0.74899 0.525643,0 1.755473,1.03293 1.755473,1.47441 0,0.49939 -0.431534,0.48457 -0.625726,-0.0215 z"
           style="fill:#5c6158;stroke-width:0.26458332" />
        <path
           inkscape:connector-curvature="0"
           id="path85"
           d="m 93.470232,206.14687 c -1.25762,-0.50191 -2.345583,-1.55822 -2.782055,-2.7011 -0.373562,-0.97816 -0.404248,-1.58921 -0.202857,-4.03945 0.335059,-4.07653 0.04044,-6.65123 -1.003833,-8.77244 -0.794754,-1.61437 -0.883917,-1.70083 -1.605326,-1.55655 -0.802797,0.16056 -0.972071,-0.0491 -0.456167,-0.565 0.233835,-0.23384 0.134461,-0.37352 -0.414099,-0.58209 -0.396972,-0.15092 -1.011672,-0.27441 -1.366001,-0.27441 -0.354329,0 -0.644234,-0.11906 -0.644234,-0.26458 0,-0.44299 1.414154,-0.29592 2.505695,0.26058 0.566546,0.28884 1.058757,0.49649 1.093804,0.46144 0.03505,-0.035 -0.224113,-0.53926 -0.575909,-1.12047 -0.351796,-0.58122 -0.640239,-0.90793 -0.640985,-0.72603 -7.45e-4,0.1819 -0.120418,0.33073 -0.265939,0.33073 -0.145521,0 -0.264583,-0.34149 -0.264583,-0.75887 0,-0.50664 -0.443545,-1.33341 -1.334492,-2.48751 -1.051292,-1.36179 -1.303961,-1.87453 -1.190625,-2.41613 0.498361,-2.38151 0.28455,-2.33697 2.0303,-0.42291 1.397252,1.53196 1.53567,1.62493 1.267367,0.85122 -0.165659,-0.47771 -0.929805,-1.90646 -1.698102,-3.175 -1.51082,-2.49451 -1.512607,-2.65123 -0.03894,-3.41329 0.731016,-0.37802 0.820663,-0.37383 1.132747,0.053 0.686422,0.93874 2.443546,4.56439 3.395857,7.00702 0.538978,1.38244 1.231106,2.73017 1.538062,2.99494 0.420893,0.36305 0.475537,0.53244 0.222267,0.68897 -0.53419,0.33014 -0.09108,2.03786 0.655745,2.5272 0.617463,0.40457 0.633974,0.39609 0.618623,-0.31804 -0.0353,-1.64188 -0.463749,-3.29258 -1.00384,-3.86748 -0.672142,-0.71546 -0.439031,-1.17211 0.270536,-0.52996 0.459644,0.41598 0.484493,0.39664 0.484493,-0.37703 0,-0.6197 -0.236805,-1.01069 -0.986326,-1.62851 -0.762796,-0.62876 -0.872451,-0.81301 -0.483854,-0.81301 0.276359,0 0.720205,0.19705 0.986325,0.43788 0.460198,0.41648 0.483855,0.39153 0.483855,-0.51027 0,-1.00482 -0.441243,-1.63215 -1.351117,-1.92094 -0.366999,-0.11648 -0.465449,-0.26469 -0.291422,-0.43871 0.174026,-0.17403 0.445298,-0.16515 0.802989,0.0263 0.786601,0.42097 0.83955,0.38138 0.83955,-0.62774 0,-0.64822 -0.240583,-1.19085 -0.821159,-1.85209 -0.584132,-0.66528 -0.703197,-0.93524 -0.41249,-0.93524 0.224768,0 0.491703,0.13435 0.593189,0.29856 0.123083,0.19915 0.279745,0.13308 0.470513,-0.19844 0.246658,-0.42864 0.324026,-0.32178 0.562526,0.77701 l 0.276535,1.274 1.019379,-0.69177 c 1.055947,-0.71658 1.550384,-0.71873 0.95734,-0.004 -0.391166,0.47133 -0.348218,0.54282 0.538857,0.89692 0.644098,0.25711 0.642272,0.26037 -0.155211,0.27694 -0.443839,0.009 -0.958306,-0.13206 -1.14326,-0.31396 -0.269797,-0.26534 -0.437186,-0.20724 -0.846667,0.2939 -0.375641,0.45972 -0.510386,1.03599 -0.510386,2.18281 0,1.70242 0.341658,2.05741 0.672068,0.69829 0.206439,-0.84917 0.210346,-0.85107 0.31329,-0.1524 0.05733,0.38913 -0.140917,1.18806 -0.440557,1.7754 -0.671948,1.31713 -0.676275,1.96436 -0.02276,3.40408 0.580728,1.27937 1.234576,1.55393 0.945134,0.39688 -0.100107,-0.40018 -0.233874,-1.14432 -0.29726,-1.65365 -0.110171,-0.88525 -0.101223,-0.89691 0.203162,-0.26458 0.458044,0.95153 0.452358,0.94954 0.896969,0.31477 0.668902,-0.955 0.945951,-0.65393 0.376301,0.40892 -0.291325,0.54354 -0.527928,1.46628 -0.525784,2.05052 0.0043,1.17821 0.894897,4.31557 1.119523,3.9439 0.694109,-1.14847 1.583057,-9.28672 1.485242,-13.59728 L 98.389195,174.03 h 1.174585 1.17459 v 5.7324 c 0,3.15282 0.0893,5.82181 0.19843,5.93108 0.32429,0.32466 0.22657,0.63964 -0.19843,0.63964 -0.2242,0 -0.39688,0.23688 -0.39688,0.54444 0,0.29944 -0.24871,1.74466 -0.552692,3.2116 l -0.552693,2.66718 0.676858,0.67685 0.676857,0.67686 0.58086,-1.30878 c 0.81341,-1.83274 0.96359,-3.68611 0.35333,-4.36044 -0.54702,-0.60445 -0.33439,-1.02404 0.2663,-0.52551 0.34145,0.28338 0.40737,0.23846 0.43007,-0.29303 0.0626,-1.46688 -0.0978,-2.50681 -0.44711,-2.8975 -0.4875,-0.54529 -0.4763,-0.869 0.0234,-0.67724 0.34145,0.13103 0.39688,-0.3795 0.39688,-3.65556 0,-3.71141 0.0174,-3.82848 0.68557,-4.62261 0.37707,-0.44812 0.80355,-0.74185 0.94774,-0.65273 0.14817,0.0916 -0.0349,0.47205 -0.42099,0.87508 -0.64767,0.67601 -0.68316,0.86043 -0.68316,3.54964 v 2.83659 l 0.76012,-0.39307 c 0.41807,-0.21619 0.83316,-0.66573 0.92243,-0.99898 0.24528,-0.91564 0.20294,-1.14202 -0.14796,-0.79112 -0.71597,0.71597 -0.97418,0.29496 -0.36745,-0.59911 0.61686,-0.90898 1.12307,-3.08647 0.82838,-3.56328 -0.13476,-0.21804 1.39464,-1.60553 1.76973,-1.60553 0.37044,0 0.4616,2.62692 0.20283,5.8454 -0.33722,4.19422 -0.9,7.04024 -2.52949,12.79167 -0.89431,3.15654 -1.26327,5.01028 -1.43465,7.20802 -0.12688,1.62724 -0.35373,3.18849 -0.50409,3.46944 -0.47084,0.87978 -2.08879,2.13024 -3.130638,2.41956 -1.242418,0.34502 -4.744099,0.33638 -5.621722,-0.0139 z m 2.631387,-1.1864 c 0.579325,-0.52339 1.304213,-1.35757 1.610861,-1.85373 0.306648,-0.49617 0.665112,-0.83564 0.796586,-0.75439 0.302733,0.1871 -0.372476,1.28728 -1.575765,2.56754 l -0.932535,0.99219 h 1.192372 c 1.544173,0 3.664492,-1.04611 4.299632,-2.12131 0.33872,-0.57341 0.54704,-1.72176 0.70918,-3.90936 0.15719,-2.12068 0.48605,-3.97353 1.04285,-5.87558 2.08997,-7.13935 2.91753,-11.66831 2.91753,-15.9668 0,-2.14679 -0.0611,-2.51398 -0.39688,-2.38513 -0.26845,0.10302 -0.39687,0.52401 -0.39687,1.30106 0,3.7479 -1.33318,10.04623 -3.06331,14.47196 -0.52604,1.34564 -1.25041,3.57557 -1.60969,4.9554 -0.35929,1.37984 -0.705007,2.56054 -0.768256,2.62379 -0.351227,0.35123 -0.337639,-0.38399 0.04093,-2.21456 l 0.425926,-2.05955 -0.679603,-0.6796 -0.679603,-0.67961 -0.434025,1.04413 c -0.485906,1.16892 -1.614656,2.79857 -3.838621,5.54203 -1.770619,2.18423 -2.358334,3.26185 -2.358334,4.32419 0,0.65015 0.163672,0.84648 0.992187,1.19013 1.39436,0.57835 1.525087,0.55358 2.705439,-0.5128 z m -3.119983,-3.62384 c 0.328602,-0.46668 1.303255,-1.71255 2.165895,-2.7686 1.770005,-2.16686 1.77092,-2.15785 -0.369395,-3.64108 -1.195094,-0.8282 -1.580393,-0.69736 -1.580393,0.53668 0,1.68279 -0.575471,3.58491 -1.500416,4.95938 -0.955953,1.42054 -1.044284,2.40556 -0.296513,3.30657 0.262954,0.31684 0.37308,0.21832 0.649979,-0.58149 0.183361,-0.52962 0.602241,-1.34478 0.930843,-1.81146 z m -1.090451,-2.41137 c 1.181028,-2.66991 0.869303,-6.17061 -0.913925,-10.26347 -0.995882,-2.28575 -3.274071,-5.83944 -4.88907,-7.62635 l -1.070828,-1.18482 -0.01085,0.92682 c -0.0084,0.72041 0.317323,1.36858 1.462731,2.91042 0.81047,1.09097 1.809895,2.57891 2.220945,3.30651 1.814058,3.21108 2.85878,7.90303 2.517155,11.30478 -0.09898,0.98565 -0.101663,1.7921 -0.006,1.7921 0.09571,0 0.406119,-0.5247 0.689793,-1.16599 z m 5.769288,-4.05954 c 1.587391,-3.12042 2.414497,-7.82311 2.605957,-14.81666 l 0.14667,-5.35781 H 99.755552 99.098 l -0.154991,4.69635 c -0.208966,6.33181 -1.351107,12.4867 -2.796332,15.06917 -0.195443,0.34924 -0.154861,0.59724 0.153485,0.93796 0.599334,0.66225 0.792525,0.58712 1.360311,-0.52901 z m -1.674782,-1.51025 c 0.549771,-1.43955 0.369656,-3.11253 -0.542418,-5.03818 -0.659073,-1.3915 -1.374567,-2.42014 -1.550878,-2.22965 -0.130571,0.14108 0.311948,3.3871 0.504146,3.69808 0.07759,0.12554 0.28608,0.17309 0.463321,0.10568 0.23227,-0.0883 0.332557,0.39512 0.359148,1.73135 0.02029,1.01965 -0.06901,1.85391 -0.198438,1.85391 -0.129431,0 -0.235329,-0.23685 -0.235329,-0.52633 0,-1.2366 -1.500857,-4.23617 -2.119604,-4.23617 -0.102028,0 -0.08773,0.56555 0.03177,1.25677 0.1195,0.69123 0.288258,1.82232 0.375017,2.51354 0.117458,0.93583 0.271847,1.25892 0.604551,1.26519 0.245745,0.005 0.677925,0.18322 0.9604,0.39688 0.75017,0.5674 0.852425,0.5074 1.348316,-0.79107 z m -4.652782,-6.77639 c -1.02639,-3.77408 -4.200903,-11.06129 -4.909873,-11.27079 -0.130213,-0.0385 -0.449933,0.0915 -0.710488,0.28881 -0.447174,0.33866 -0.427704,0.42699 0.347249,1.57525 0.806224,1.1946 2.910727,5.50408 3.297992,6.75344 0.108357,0.34958 0.516503,1.18301 0.906991,1.85209 0.390489,0.66907 0.868989,1.60726 1.063334,2.08487 0.575414,1.4141 0.577623,0.82264 0.0048,-1.28367 z m 12.421941,-1.91299 c 0.40529,-1.85463 0.43392,-2.30193 0.14734,-2.30193 -0.75642,0 -1.17945,1.13142 -1.17945,3.1545 0,2.52136 0.35975,2.22419 1.03211,-0.85257 z m -7.911274,-3.51697 c 0,-0.0862 0.228633,-0.44736 0.508073,-0.80261 0.610789,-0.77649 0.963167,-0.42852 0.391932,0.38703 -0.372419,0.53171 -0.900005,0.77532 -0.900005,0.41558 z m -5.514689,-5.04015 c -0.547922,-0.55045 -0.737686,-0.88856 -0.498702,-0.88856 0.545254,0 1.780058,1.02278 1.780058,1.47441 0,0.54617 -0.283599,0.4165 -1.281356,-0.58585 z"
           style="fill:#45523b;stroke-width:0.26458332" />
        <path
           inkscape:connector-curvature="0"
           id="path83"
           d="m 92.977682,205.87352 c -1.623141,-0.80343 -2.566528,-2.31165 -2.528837,-4.04291 0.01607,-0.73837 0.06964,-2.83077 0.119033,-4.64978 0.09645,-3.55207 -0.282406,-5.54634 -1.399684,-7.36778 -0.465078,-0.7582 -0.651893,-0.86374 -1.299515,-0.73422 -0.747795,0.14956 -1.065038,-0.19203 -0.425624,-0.45829 0.571149,-0.23783 -0.613246,-0.96471 -1.571924,-0.96471 -0.481509,0 -0.875471,-0.11906 -0.875471,-0.26458 0,-0.44426 1.415447,-0.29526 2.513541,0.26458 0.570861,0.29104 1.079904,0.52917 1.131207,0.52917 0.0513,0 -0.173005,-0.47379 -0.498459,-1.05286 -0.460946,-0.82014 -0.669369,-0.98842 -0.942971,-0.76135 -0.278752,0.23134 -0.351235,0.12642 -0.351235,-0.50843 0,-0.53703 -0.391307,-1.32049 -1.190625,-2.38381 -1.178028,-1.56713 -1.479421,-2.69977 -1.030026,-3.87087 0.259851,-0.67716 0.540564,-0.50659 1.946422,1.18272 0.732909,0.88068 1.332562,1.47302 1.332562,1.31631 0,-0.38671 -1.651924,-3.62444 -2.433518,-4.76963 -0.347613,-0.50932 -0.72043,-1.07037 -0.82848,-1.24677 -0.125283,-0.20454 0.192333,-0.57802 0.876691,-1.03091 0.590231,-0.3906 1.119792,-0.66299 1.176801,-0.60531 0.48344,0.48909 2.509071,4.51462 3.482743,6.92125 0.661591,1.63526 1.43257,3.17088 1.713286,3.41248 0.603882,0.51975 0.647544,0.75134 0.141652,0.75134 -0.600243,0 0.03741,2.01207 0.794956,2.50844 0.628032,0.4115 0.6321,0.40772 0.629207,-0.58411 -0.0051,-1.7637 -0.315177,-2.96312 -0.940263,-3.6376 -0.335421,-0.36193 -0.512041,-0.7185 -0.392487,-0.79239 0.119554,-0.0739 0.364502,0.0429 0.54433,0.25962 0.179827,0.21668 0.431443,0.39396 0.559146,0.39396 0.716132,0 -0.370171,-2.206 -1.301919,-2.64386 -0.431222,-0.20265 -0.580267,-0.38453 -0.375646,-0.45841 0.186564,-0.0674 0.633048,0.0701 0.992187,0.30537 0.65165,0.42698 0.652981,0.42595 0.652981,-0.50429 0,-0.99072 -0.738755,-1.99048 -1.470824,-1.99048 -0.226869,0 -0.341717,-0.11451 -0.255216,-0.25447 0.100683,-0.16291 0.398106,-0.16291 0.826589,0 0.914176,0.34757 0.899451,0.35668 0.899451,-0.55667 0,-0.97855 -0.395679,-1.80868 -1.155446,-2.42412 -0.474699,-0.38452 -0.493275,-0.45807 -0.11694,-0.46302 0.246073,-0.003 0.52099,0.11318 0.610927,0.2587 0.25272,0.40891 0.609845,0.31361 0.743658,-0.19844 0.08262,-0.31616 0.13188,-0.25323 0.155305,0.19844 0.01887,0.3638 0.105147,0.92572 0.191731,1.2487 0.152371,0.56838 0.184122,0.57357 0.988575,0.16152 0.457131,-0.23415 0.913971,-0.55449 1.015199,-0.71187 0.101228,-0.15738 0.267023,-0.20318 0.368433,-0.10177 0.101409,0.10141 0.03139,0.36873 -0.155609,0.59404 -0.391166,0.47133 -0.348218,0.54282 0.538857,0.89692 0.644098,0.25711 0.642272,0.26037 -0.155211,0.27694 -0.443839,0.009 -0.958306,-0.13206 -1.14326,-0.31396 -0.269797,-0.26534 -0.437186,-0.20724 -0.846667,0.2939 -0.385696,0.47202 -0.510386,1.03761 -0.510386,2.3151 0,0.92976 0.05919,1.69048 0.131533,1.69048 0.07234,0 0.300756,-0.38695 0.507584,-0.8599 0.353085,-0.80738 0.377262,-0.8195 0.39589,-0.19843 0.01091,0.3638 -0.216716,1.01864 -0.50584,1.4552 -0.655271,0.98943 -0.661992,2.06316 -0.02174,3.47309 0.668587,1.47233 1.213909,1.80903 0.970771,0.59939 -0.09922,-0.49361 -0.233788,-1.31419 -0.299049,-1.82352 l -0.118658,-0.92604 0.342656,0.89456 0.342656,0.89456 0.456115,-0.69612 c 0.660173,-1.00755 1.063798,-0.85766 0.441017,0.16377 -0.665964,1.09226 -0.672001,2.75461 -0.01754,4.82865 0.471556,1.49438 0.516318,1.54793 0.763153,0.9129 0.574088,-1.47696 1.162193,-6.45454 1.303583,-11.03321 l 0.14911,-4.82865 h 1.188362 1.188368 l -0.1315,5.69635 c -0.0723,3.13299 -0.0295,5.7594 0.0952,5.83645 0.39103,0.24167 0.2465,0.70225 -0.17019,0.54235 -0.27208,-0.1044 -0.39688,0.0158 -0.39688,0.38229 0,0.29402 -0.25285,1.7909 -0.561892,3.32639 l -0.561893,2.79182 0.685341,0.68534 0.685344,0.68534 0.68381,-1.49363 c 0.83636,-1.82687 0.95034,-3.4023 0.29826,-4.12283 -0.28129,-0.31083 -0.36398,-0.58433 -0.20615,-0.68188 0.14494,-0.0896 0.33832,-0.0419 0.42972,0.10603 0.0914,0.14789 0.29489,0.2689 0.45218,0.2689 0.42806,0 0.0645,-2.87164 -0.43321,-3.42158 -0.52319,-0.57811 -0.53082,-0.91352 -0.0163,-0.71608 0.34145,0.13103 0.39688,-0.3795 0.39688,-3.65556 0,-3.71141 0.0174,-3.82848 0.68557,-4.62261 0.37707,-0.44812 0.79948,-0.74436 0.93869,-0.65833 0.13921,0.086 -0.0502,0.45978 -0.42099,0.83054 -0.37076,0.37076 -0.6891,0.86623 -0.70742,1.10105 -0.049,0.62858 0.077,5.17873 0.14555,5.25281 0.19847,0.21462 1.47275,-0.68408 1.59036,-1.12161 0.27135,-1.00952 0.19349,-1.29203 -0.25378,-0.92083 -0.66389,0.55098 -0.74296,0.0922 -0.12756,-0.74023 0.37663,-0.50941 0.62406,-1.32734 0.71931,-2.37783 0.1254,-1.38291 0.25159,-1.67998 0.9252,-2.178 0.429,-0.31717 0.84146,-0.51521 0.91658,-0.44009 0.0751,0.0751 0.12628,1.67539 0.11367,3.55615 -0.0237,3.53128 -0.62208,7.83372 -1.57208,11.30282 -1.8961,6.92399 -2.41812,9.23663 -2.56468,11.3621 -0.17195,2.4936 -0.46813,3.34642 -1.4953,4.30552 -1.566435,1.46263 -5.929085,1.90932 -8.10902,0.83028 z m 6.826553,-0.59248 c 1.738995,-0.85685 2.186845,-1.8127 2.421585,-5.16841 0.14167,-2.02527 0.49628,-3.86053 1.28221,-6.63597 1.6665,-5.88512 2.35137,-9.31165 2.6738,-13.37751 0.16225,-2.04612 0.25401,-3.9844 0.2039,-4.30729 -0.0861,-0.55475 -0.1239,-0.56397 -0.68643,-0.16739 -0.53074,0.37418 -0.59531,0.64389 -0.59531,2.4867 0,3.76983 -1.30383,9.5143 -3.30736,14.57174 -0.49002,1.23693 -1.08937,3.17169 -1.33189,4.29948 -0.24252,1.12779 -0.561947,2.05052 -0.709832,2.05052 -0.149657,0 -0.198241,-0.26397 -0.109569,-0.59531 0.08762,-0.32742 0.297495,-1.28959 0.466381,-2.13815 0.29859,-1.50022 0.28796,-1.56195 -0.385018,-2.23493 -0.38065,-0.38065 -0.727114,-0.63887 -0.76992,-0.57383 -0.04281,0.065 -0.392377,0.77311 -0.776825,1.57347 -0.384447,0.80037 -1.61235,2.5863 -2.728674,3.96875 -2.20171,2.72659 -2.760868,3.63392 -3.06379,4.97153 -0.165141,0.72922 -0.102409,0.93256 0.386534,1.25292 1.689317,1.10689 3.209305,0.5473 4.680494,-1.72313 0.488362,-0.75367 0.930845,-1.24157 0.983294,-1.08422 0.124495,0.37348 -0.791535,1.84474 -1.651686,2.65281 -0.372883,0.3503 -0.67797,0.73295 -0.67797,0.85032 0,0.37873 2.477852,-0.0718 3.696076,-0.6721 z m -7.575661,-2.40495 c 0.267321,-0.65006 1.368649,-2.28119 2.447395,-3.62474 1.078747,-1.34355 1.954576,-2.56741 1.946289,-2.71969 -0.0209,-0.38413 -2.529973,-2.26125 -3.022519,-2.26125 -0.279928,0 -0.401996,0.27023 -0.401996,0.88993 0,2.24981 -0.655181,4.15043 -2.17013,6.29534 -0.237166,0.33579 -0.233696,0.69186 0.01482,1.52135 0.178455,0.59563 0.408981,1.08252 0.51228,1.08197 0.103299,-5.3e-4 0.406534,-0.53285 0.673856,-1.18291 z m -0.344109,-3.77703 c 1.355295,-2.8527 0.898763,-6.76738 -1.321134,-11.32851 -1.223371,-2.5136 -3.778369,-6.28857 -4.965792,-7.33688 -0.524229,-0.46281 -0.542991,-0.45682 -0.714921,0.2282 -0.106712,0.42518 -0.04077,0.89039 0.166677,1.17592 5.16176,7.10473 6.130211,9.59575 5.980574,15.38304 -0.0446,1.7248 -0.0049,3.13577 0.08821,3.1355 0.09311,-2.7e-4 0.437986,-0.56605 0.766381,-1.25727 z m 6.298862,-5.29167 c 1.391597,-3.60876 1.936693,-7.16676 2.090773,-13.64699 l 0.13732,-5.77563 -0.707922,0.0871 -0.707924,0.0871 -0.09638,4.36563 c -0.137847,6.24375 -0.899854,10.76893 -2.477496,14.71262 -0.501404,1.25338 -0.509057,1.38263 -0.105749,1.78594 0.752758,0.75276 1.054836,0.49138 1.867381,-1.61575 z m -2.256464,-0.20741 c 0.558613,-1.17143 0.563843,-2.27588 0.01946,-4.10902 -0.403778,-1.35967 -1.605882,-3.40475 -2.008509,-3.41698 -0.222552,-0.007 0.03977,2.52534 0.348379,3.36273 0.11964,0.32465 0.370167,0.53186 0.556726,0.46048 0.254134,-0.0972 0.340474,0.30215 0.344282,1.59255 0.0056,1.90492 -0.243072,2.25535 -0.526893,0.74246 -0.238185,-1.26964 -0.984342,-2.71833 -1.743857,-3.38575 -0.497555,-0.43722 -0.574038,-0.45182 -0.440188,-0.084 0.0891,0.24484 0.235296,1.19734 0.324886,2.11667 0.245946,2.52381 0.352145,2.86214 0.898406,2.86214 0.270451,0 0.639949,0.17859 0.821106,0.39687 0.519573,0.62605 0.925035,0.47088 1.406204,-0.53814 z m -4.213939,-5.98366 c -0.66181,-2.83692 -1.676909,-5.54499 -3.432843,-9.15809 l -1.705371,-3.50906 -0.657234,0.43063 c -0.361478,0.23685 -0.657233,0.47469 -0.657233,0.52853 0,0.0538 0.355837,0.67619 0.79075,1.38302 0.434912,0.70682 1.334276,2.46478 1.998586,3.90657 1.247722,2.70802 3.894119,8.04541 3.989089,8.04541 0.0296,0 -0.116989,-0.73215 -0.325744,-1.62701 z m 11.921636,-2.40789 c 0.25807,-1.20054 0.51193,-2.33164 0.56414,-2.51354 0.15995,-0.55723 -0.62681,-0.36698 -1.06408,0.25731 -0.44181,0.63077 -0.6053,4.43905 -0.19057,4.43905 0.12171,0 0.43244,-0.98227 0.69051,-2.18282 z m -7.790984,-4.11687 c 0,-0.25887 0.871515,-1.10865 1.137009,-1.10865 0.09311,0 0.0995,0.1819 0.01418,0.40423 -0.177136,0.46161 -1.151193,1.05764 -1.151193,0.70442 z m -5.401895,-4.95612 c -0.612597,-0.54092 -0.871782,-0.91503 -0.633947,-0.91503 0.467198,0 1.802509,1.16667 1.802509,1.57487 0,0.37469 0.0084,0.37946 -1.168562,-0.65984 z"
           style="fill:#2b2b2b;stroke-width:0.26458332" />
      </g>
    </g>
  </g>
</svg>
